<svg width="100" height="100" viewBox="0 0 100 100" fill="none" xmlns="http://www.w3.org/2000/svg">
<rect x="0.5" y="0.5" width="99" height="99" stroke="white"/>
<path d="M47.0928 61.873V29.5H51.6338V67H47.4834L47.0928 61.873ZM29.3193 54.085V53.5723C29.3193 51.554 29.5635 49.723 30.0518 48.0791C30.5563 46.4189 31.2643 44.9948 32.1758 43.8066C33.1035 42.6185 34.2021 41.707 35.4717 41.0723C36.7575 40.4212 38.1898 40.0957 39.7686 40.0957C41.4287 40.0957 42.8773 40.3887 44.1143 40.9746C45.3675 41.5443 46.4255 42.3825 47.2881 43.4893C48.167 44.5798 48.8587 45.8981 49.3633 47.4443C49.8678 48.9906 50.2178 50.7402 50.4131 52.6934V54.9395C50.234 56.8763 49.8841 58.6178 49.3633 60.1641C48.8587 61.7103 48.167 63.0286 47.2881 64.1191C46.4255 65.2096 45.3675 66.0479 44.1143 66.6338C42.861 67.2035 41.3962 67.4883 39.7197 67.4883C38.1735 67.4883 36.7575 67.1546 35.4717 66.4873C34.2021 65.82 33.1035 64.8841 32.1758 63.6797C31.2643 62.4753 30.5563 61.0592 30.0518 59.4316C29.5635 57.7878 29.3193 56.0055 29.3193 54.085ZM33.8604 53.5723V54.085C33.8604 55.4033 33.9906 56.6403 34.251 57.7959C34.5277 58.9515 34.9508 59.9688 35.5205 60.8477C36.0902 61.7266 36.8145 62.4183 37.6934 62.9229C38.5723 63.4111 39.6221 63.6553 40.8428 63.6553C42.3402 63.6553 43.569 63.3379 44.5293 62.7031C45.5059 62.0684 46.2871 61.2301 46.873 60.1885C47.459 59.1468 47.9147 58.0156 48.2402 56.7949V50.9111C48.0449 50.016 47.7601 49.1533 47.3857 48.3232C47.0277 47.4769 46.5557 46.7282 45.9697 46.0771C45.4001 45.4098 44.6921 44.8809 43.8457 44.4902C43.0156 44.0996 42.0309 43.9043 40.8916 43.9043C39.6546 43.9043 38.5885 44.1647 37.6934 44.6855C36.8145 45.1901 36.0902 45.89 35.5205 46.7852C34.9508 47.6641 34.5277 48.6895 34.251 49.8613C33.9906 51.0169 33.8604 52.2539 33.8604 53.5723ZM69.7246 40.584V44.0508H55.4424V40.584H69.7246ZM60.2764 34.1631H64.793V60.457C64.793 61.3522 64.9313 62.0277 65.208 62.4834C65.4847 62.9391 65.8428 63.2402 66.2822 63.3867C66.7217 63.5332 67.1937 63.6064 67.6982 63.6064C68.0726 63.6064 68.4632 63.5739 68.8701 63.5088C69.2933 63.4274 69.6107 63.3623 69.8223 63.3135L69.8467 67C69.4886 67.1139 69.0166 67.2197 68.4307 67.3174C67.861 67.4313 67.1693 67.4883 66.3555 67.4883C65.2487 67.4883 64.2314 67.2686 63.3037 66.8291C62.376 66.3896 61.6354 65.6572 61.082 64.6318C60.5449 63.5902 60.2764 62.1904 60.2764 60.4326V34.1631Z" fill="white"/>
</svg>
